# xmcd
# 
# Track frame offsets:
#     150
#     14060
#     28590
#     46865
#     60952
#     75887
#     89837
#     107375
#     124625
#     134550
#     150645
#     169100
#     186160
#     199435
#     212095
#     228855
# 
# Disc length: 3320
# 
# Revision: 7
# Processed by: cddbd v1.5.2PL0 Copyright (c) Steve Scherf et al.
# Submitted via: fre:ac v1.0.31
# 
DISCID=cf0cf610
DTITLE=KC and the Sunshine Band - The Best of KC and the Sunshine Band
DYEAR=1990
DGENRE=Disco
TTITLE0=Sound Your Funky Horn
TTITLE1=Get Down Tonight
TTITLE2=I'm Your Boogie Man
TTITLE3=(Shake, Shake, Shake) Shake Your Booty
TTITLE4=Queen of Clubs
TTITLE5=That's the Way (I Like It)
TTITLE6=Keep It Comin' Love
TTITLE7=Please Don't Go
TTITLE8=Boogie Shoes
TTITLE9=Let's Go Rock and Roll
TTITLE10=Give It Up
TTITLE11=Do You Wanna Go Party
TTITLE12=I Like to Do It
TTITLE13=Shotgun Shuffle
TTITLE14=Wrap Your Arms Around Me
TTITLE15=All I Want
EXTD=Rhino Records\nASIN: B0000032RS YEAR: 1990
EXTT0=
EXTT1=
EXTT2=
EXTT3=
EXTT4=
EXTT5=
EXTT6=
EXTT7=
EXTT8=
EXTT9=
EXTT10=
EXTT11=
EXTT12=
EXTT13=
EXTT14=
EXTT15=
PLAYORDER=
